<?xml version="1.0" encoding="utf-8"?>
<!-- Generator: Adobe Illustrator 18.1.1, SVG Export Plug-In . SVG Version: 6.00 Build 0)  -->
<svg version="1.1" id="svg2" xmlns="http://www.w3.org/2000/svg" xmlns:xlink="http://www.w3.org/1999/xlink" x="0px" y="0px"
	 viewBox="-645.1 350.9 162.6 118" enable-background="new -645.1 350.9 162.6 118" xml:space="preserve">
<path fill-rule="evenodd" clip-rule="evenodd" fill="#D7D7D7" d="M-486.4,350.9h-73.8c0,1.9-1.6,3.5-3.5,3.5s-3.5-1.6-3.5-3.5h-73.8
	c-2.2,0-4,1.8-4,4v110c0,2.2,1.8,4,4,4h154.6c2.2,0,4-1.8,4-4v-110C-482.4,352.7-484.2,350.9-486.4,350.9z"/>
<g>
	<linearGradient id="SVGID_1_" gradientUnits="userSpaceOnUse" x1="-563.574" y1="367.6949" x2="-563.574" y2="454.197">
		<stop  offset="0" style="stop-color:#CCCCCC"/>
		<stop  offset="1" style="stop-color:#5C5C5C"/>
	</linearGradient>
	<path fill="url(#SVGID_1_)" d="M-502,454.2h-123.1c-2.1,0-3.8-1.7-3.8-3.8v-79c0-2.1,1.7-3.8,3.8-3.8H-502c2.1,0,3.8,1.7,3.8,3.8
		v79C-498.3,452.5-500,454.2-502,454.2z"/>
	<linearGradient id="SVGID_2_" gradientUnits="userSpaceOnUse" x1="-563.574" y1="366.6949" x2="-563.574" y2="453.197">
		<stop  offset="0" style="stop-color:#EBEBEB"/>
		<stop  offset="1" style="stop-color:#BDBDBD"/>
	</linearGradient>
	<path fill="url(#SVGID_2_)" d="M-502,453.2h-123.1c-2.1,0-3.8-1.7-3.8-3.8v-79c0-2.1,1.7-3.8,3.8-3.8H-502c2.1,0,3.8,1.7,3.8,3.8
		v79C-498.3,451.5-500,453.2-502,453.2z"/>
	<linearGradient id="SVGID_3_" gradientUnits="userSpaceOnUse" x1="-602.711" y1="376.4" x2="-602.711" y2="404.6714">
		<stop  offset="0" style="stop-color:#242424"/>
		<stop  offset="1" style="stop-color:#000000"/>
	</linearGradient>
	<path fill="url(#SVGID_3_)" d="M-589.5,404.7h-26.4c-0.5,0-0.9-0.4-0.9-0.9v-26.4c0-0.5,0.4-0.9,0.9-0.9h26.4
		c0.5,0,0.9,0.4,0.9,0.9v26.4C-588.6,404.2-589,404.7-589.5,404.7z"/>
	<linearGradient id="SVGID_4_" gradientUnits="userSpaceOnUse" x1="-602.711" y1="374.9231" x2="-602.711" y2="406.1483">
		<stop  offset="0" style="stop-color:#E94234"/>
		<stop  offset="1" style="stop-color:#A22921"/>
	</linearGradient>
	<circle fill="url(#SVGID_4_)" cx="-602.7" cy="390.5" r="15.6"/>
	<linearGradient id="SVGID_5_" gradientUnits="userSpaceOnUse" x1="-602.711" y1="413.8139" x2="-602.711" y2="442.0853">
		<stop  offset="0" style="stop-color:#242424"/>
		<stop  offset="1" style="stop-color:#000000"/>
	</linearGradient>
	<path fill="url(#SVGID_5_)" d="M-589.5,442.1h-26.4c-0.5,0-0.9-0.4-0.9-0.9v-26.4c0-0.5,0.4-0.9,0.9-0.9h26.4
		c0.5,0,0.9,0.4,0.9,0.9v26.4C-588.6,441.7-589,442.1-589.5,442.1z"/>
	<linearGradient id="SVGID_6_" gradientUnits="userSpaceOnUse" x1="-602.711" y1="412.337" x2="-602.711" y2="443.5622">
		<stop  offset="0" style="stop-color:#3383D1"/>
		<stop  offset="1" style="stop-color:#3342C4"/>
	</linearGradient>
	<circle fill="url(#SVGID_6_)" cx="-602.7" cy="427.9" r="15.6"/>
	<linearGradient id="SVGID_7_" gradientUnits="userSpaceOnUse" x1="-524.7184" y1="376.4" x2="-524.7184" y2="404.6714">
		<stop  offset="0" style="stop-color:#242424"/>
		<stop  offset="1" style="stop-color:#000000"/>
	</linearGradient>
	<path fill="url(#SVGID_7_)" d="M-511.5,404.7h-26.4c-0.5,0-0.9-0.4-0.9-0.9v-26.4c0-0.5,0.4-0.9,0.9-0.9h26.4
		c0.5,0,0.9,0.4,0.9,0.9v26.4C-510.6,404.2-511,404.7-511.5,404.7z"/>
	<linearGradient id="SVGID_8_" gradientUnits="userSpaceOnUse" x1="-524.7184" y1="374.9231" x2="-524.7184" y2="406.1483">
		<stop  offset="0" style="stop-color:#E94234"/>
		<stop  offset="1" style="stop-color:#A22921"/>
	</linearGradient>
	<circle fill="url(#SVGID_8_)" cx="-524.7" cy="390.5" r="15.6"/>
	<linearGradient id="SVGID_9_" gradientUnits="userSpaceOnUse" x1="-524.7184" y1="413.8139" x2="-524.7184" y2="442.0853">
		<stop  offset="0" style="stop-color:#242424"/>
		<stop  offset="1" style="stop-color:#000000"/>
	</linearGradient>
	<path fill="url(#SVGID_9_)" d="M-511.5,442.1h-26.4c-0.5,0-0.9-0.4-0.9-0.9v-26.4c0-0.5,0.4-0.9,0.9-0.9h26.4
		c0.5,0,0.9,0.4,0.9,0.9v26.4C-510.6,441.7-511,442.1-511.5,442.1z"/>
	<linearGradient id="SVGID_10_" gradientUnits="userSpaceOnUse" x1="-524.7184" y1="412.337" x2="-524.7184" y2="443.5622">
		<stop  offset="0" style="stop-color:#3383D1"/>
		<stop  offset="1" style="stop-color:#3342C4"/>
	</linearGradient>
	<circle fill="url(#SVGID_10_)" cx="-524.7" cy="427.9" r="15.6"/>
	<linearGradient id="SVGID_11_" gradientUnits="userSpaceOnUse" x1="-563.6796" y1="413.8139" x2="-563.6796" y2="442.0853">
		<stop  offset="0" style="stop-color:#242424"/>
		<stop  offset="1" style="stop-color:#000000"/>
	</linearGradient>
	<path fill="url(#SVGID_11_)" d="M-550.5,442.1h-26.4c-0.5,0-0.9-0.4-0.9-0.9v-26.4c0-0.5,0.4-0.9,0.9-0.9h26.4
		c0.5,0,0.9,0.4,0.9,0.9v26.4C-549.5,441.7-550,442.1-550.5,442.1z"/>
	<linearGradient id="SVGID_12_" gradientUnits="userSpaceOnUse" x1="-563.6796" y1="412.337" x2="-563.6796" y2="443.5622">
		<stop  offset="0" style="stop-color:#3383D1"/>
		<stop  offset="1" style="stop-color:#3342C4"/>
	</linearGradient>
	<circle fill="url(#SVGID_12_)" cx="-563.7" cy="427.9" r="15.6"/>
	<text transform="matrix(1 0 0 1 -583.4131 394.8437)" fill="#5D6069" font-family="'Roboto-Bold'" font-size="8">A</text>
	<text transform="matrix(1 0 0 1 -583.4112 408.9453)" fill="#5D6069" font-family="'Roboto-Bold'" font-size="8">C</text>
	<text transform="matrix(1 0 0 1 -549.5919 393.7085)" fill="#5D6069" font-family="'Roboto-Bold'" font-size="8">B</text>
	<text transform="matrix(1 0 0 1 -549.587 408.9453)" fill="#5D6069" font-family="'Roboto-Bold'" font-size="8">E</text>
	<text transform="matrix(1 0 0 1 -566.293 408.9453)" fill="#5D6069" font-family="'Roboto-Bold'" font-size="8">D</text>
</g>
</svg>
