<?xml version="1.0" encoding="utf-8"?>
<!-- Generator: Adobe Illustrator 18.1.1, SVG Export Plug-In . SVG Version: 6.00 Build 0)  -->
<svg version="1.1" id="svg" xmlns:xml="http://www.w3.org/XML/1998/namespace"
	 xmlns="http://www.w3.org/2000/svg" xmlns:xlink="http://www.w3.org/1999/xlink" x="0px" y="0px" viewBox="-649.8 376 63.9 101.3"
	 enable-background="new -649.8 376 63.9 101.3" xml:space="preserve">
<path fill-rule="evenodd" clip-rule="evenodd" fill="#D7D7D7" d="M-589.9,376h-24.4c0,1.9-1.6,3.5-3.5,3.5c-1.9,0-3.5-1.6-3.5-3.5
	h-24.5c-2.2,0-4,1.8-4,4v93.3c0,2.2,1.8,4,4,4h55.9c2.2,0,4-1.8,4-4V380C-585.9,377.8-587.7,376-589.9,376z"/>
<g id="icon">
	<g>
		<g>
			<polygon fill="#0C0C0C" points="-623,391.8 -624.8,393.7 -611.2,393.7 -613.1,391.8 			"/>
			<rect x="-611.3" y="393.7" width="0.2" height="15.2"/>
			<rect x="-612" y="393.7" width="0.3" height="15.2"/>
			<polygon fill="#101010" points="-611.7,408.9 -611.3,408.9 -611.3,393.7 -612.7,392.2 -611.7,393.7 			"/>
			<polygon fill="#202020" points="-613.4,392.2 -612.7,393.7 -612.7,408.9 -612,408.9 -612,393.7 			"/>
			<rect x="-613.2" y="393.7" width="0.5" height="15.2"/>
			<rect x="-614.6" y="393.7" width="0.6" height="15.2"/>
			<polygon fill="#303030" points="-614.4,392.2 -614,393.7 -614,408.9 -613.2,408.9 -613.2,393.7 			"/>
			<polygon fill="#404040" points="-615.6,392.2 -615.6,393.7 -615.6,408.9 -614.6,408.9 -614.6,393.7 			"/>
			<rect x="-616.3" y="393.7" width="0.7" height="15.2"/>
			<rect x="-618.1" y="393.7" width="0.7" height="15.2"/>
			<polygon fill="#515151" points="-617,392.2 -617.4,393.7 -617.4,408.9 -616.3,408.9 -616.3,393.7 			"/>
			<polygon fill="#515151" points="-618.5,392.2 -619.3,393.7 -619.3,408.9 -618.1,408.9 -618.1,393.7 			"/>
			<rect x="-620" y="393.7" width="0.7" height="15.2"/>
			<rect x="-621.6" y="393.7" width="0.6" height="15.2"/>
			<polygon fill="#404040" points="-620,392.2 -621,393.7 -621,408.9 -620,408.9 -620,393.7 			"/>
			<polygon fill="#303030" points="-621.2,392.2 -622.5,393.7 -622.5,408.9 -621.6,408.9 -621.6,393.7 			"/>
			<rect x="-623" y="393.7" width="0.5" height="15.2"/>
			<rect x="-624" y="393.7" width="0.3" height="15.2"/>
			<polygon fill="#202020" points="-622.3,392.2 -623.7,393.7 -623.7,408.9 -623,408.9 -623,393.7 			"/>
			<polygon fill="#101010" points="-623,392.2 -624.5,393.7 -624.5,408.9 -624,408.9 -624,393.7 			"/>
			<rect x="-624.7" y="393.7" width="0.2" height="15.2"/>
			<rect x="-624.8" y="393.7" fill="#515151" width="0.2" height="15.2"/>
		</g>
		<rect x="-624.8" y="408.9" width="13.7" height="31.6"/>
		<rect x="-623.8" y="408.9" fill="#202020" width="11.6" height="31.6"/>
		<rect x="-619.7" y="408.9" fill="#353535" width="5.2" height="31.6"/>
		<rect x="-617.9" y="408.9" fill="#515151" width="1.5" height="31.6"/>
		<rect x="-618.6" y="391.8" fill="#0C0C0C" width="1.6" height="8.9"/>
		<rect x="-634.4" y="440.5" fill="#1E1E1E" width="32.8" height="14.3"/>
	</g>
	<rect x="-622.8" y="440.5" width="9.7" height="4.4"/>
	
		<line opacity="0.2" fill="none" stroke="#FFFFFF" stroke-width="0.1786" enable-background="new    " x1="-622.7" y1="445.4" x2="-613.3" y2="445.4"/>
	<rect x="-625.7" y="438.8" fill="#B3B3B3" width="15.5" height="0.9"/>
	<rect x="-634.4" y="439.8" fill="#999999" width="32.8" height="0.7"/>
	<rect x="-631.2" y="439.4" width="1.8" height="0.7"/>
	<rect x="-606.5" y="439.4" width="1.8" height="0.7"/>
	<rect x="-607.5" y="449.9" fill="#8C8C8C" width="3.7" height="11.9"/>
	<rect x="-619.8" y="449.9" fill="#8C8C8C" width="3.7" height="11.9"/>
	<rect x="-632.1" y="449.9" fill="#8C8C8C" width="3.7" height="11.9"/>
</g>
</svg>
